/* XPM */
static char *bdac8ec2e0e14151af233821af38e606ZFI4zYjUqWlUDjz1[] = {
/* columns rows colors chars-per-pixel */
"67 76 26 1 ",
"  c None",
". c black",
"X c #050403",
"o c #673931",
"O c #2D1B1E",
"+ c #0E0C0C",
"@ c #141013",
"# c #FCA570",
"$ c #221C1A",
"% c #BD6A62",
"& c #060608",
"* c #171819",
"= c #333941",
"- c #C7B08B",
"; c #73172D",
": c #B4202A",
"> c #612721",
", c #3B2027",
"< c #21181B",
"1 c #1B2447",
"2 c #464762",
"3 c #5E718E",
"4 c #14121D",
"5 c #452A1B",
"6 c #271F1B",
"7 c white",
/* pixels */
"                                                                   ",
"                                                                   ",
"                                                                   ",
"                                                                   ",
"                                                                   ",
"                                                                   ",
"               ................XXX.........................        ",
"               ..............XXoooX........................        ",
"               .............XooOOOoX.......................        ",
"               ............XOOOOOOOoX......................        ",
"               ............XOOOOOOooX......................        ",
"               ..........XXooooooooooXXX...................        ",
"               .........X++++++XXXXX+++X...................        ",
"               ........X++++XXX@####X+X....................        ",
"               ........X+++X@@@#$$$#XX.....................        ",
"               .........X++X#@##%&&#X......................        ",
"               ..........XXX%@####%#X......................        ",
"               ............X########X......................        ",
"               .............X%#####%X......................        ",
"               .............X#%####%X......................        ",
"               ............XX##%%##%X......................        ",
"               ...........XoX%##%OXX.......................        ",
"               ..........XooX*%%OX=X.......................        ",
"               .........XooX--*;;*=oX......................        ",
"               ......XXXoooX-*;:::*ooXX....................        ",
"               .....X>OXoooX*--;:;=XooOX...................        ",
"               .....X>OXoooX---:;-=XooOX...................        ",
"               ....X>>>XXXoX---:;--=XooOX..................        ",
"               ....X>>>OXoooX--:;--=XooOX..................        ",
"               ....XO>OXooooX+-::;-+,XooX..................        ",
"               ....X>OOXooooX,+::;-+,XooX..................        ",
"               ...X>>OOXXoooX,,+;;+,,XooOX.................        ",
"               ...XOOOXOXoooX,,,+;+,,XooOX.................        ",
"               ..X>>OOXOOXooX<,,,+,,,<XoOX.................        ",
"               ..X>>>OXOOXooX<<,,+,,,<XoOX.................        ",
"               .X>>>>OXOOXXXXXXXXXX,<<XoOOX...........X....        ",
"               .X>>>OXXOX1222222222XXXXXXXXXXXXXXXXXXX3XXX.        ",
"               .X>>O>>>XX111222222222221111111111111113222X        ",
"               XO>O>>>>>>XXXX111111X224XXXXXXXXXXXXXXXXXXX.        ",
"               XOO>>>>>>>>>>>X%#%%X+X2XOOX%>>>X............        ",
"               XOOO>>>>>>>>O>X###X22X2XOOXO%%#X............        ",
"               .XXOOOOOOOOOOOX##%X<+X1XOOX%O%X.............        ",
"               ...XXXOOOOO+OOX%%X<<+X1XOOXO%%X.............        ",
"               ......XXXXXXXX>>X<<<+X1XOOX>OX..............        ",
"               ......XOOOOOOXXX<<<,+X1XOOXXX...............        ",
"               ......X>>>>OOX<<<<,,XX4XOOX.................        ",
"               ......X>>>OOOX<<<,,X5XXXOOX.................        ",
"               ......X>>OOOX6XX,,,X5X<XOOX.................        ",
"               .....X>>>OOOX666XXX566X6XOX.................        ",
"               .....X>>>OOOX55665566666XOX.................        ",
"               .....X>>>OOOX55666666666XOX.................        ",
"               .....X>>OOOOX5666XX66666XOX.................        ",
"               .....X>>OOOX5666X++X6666XOX.................        ",
"               ....X>>>OOOX5566X++X6665XOX.................        ",
"               ....X>>OOOOX556X+++X6665XOX.................        ",
"               ....X>>OOOOX566X+++X6665XOX.................        ",
"               ....X>>OOOOX56X+++++X665XOX.................        ",
"               ....X>>>OOOX56XXXXX+X665XOX.................        ",
"               .....X>>>OOX6X.....XX6655X..................        ",
"               ......XX>>>X6X......X6655X..................        ",
"               ......X5XXX6X.......X6655X..................        ",
"               .....X55566X........X6665X..................        ",
"               .....X55666X.......X66666X..................        ",
"               .....X56666X.......X6656X...................        ",
"               .....X6556X........X6655X...................        ",
"               ....X55556X........X6655X...................        ",
"               ....X5556X.........X6655X...................        ",
"               ....X5556X.........X6655X...................        ",
"               ....X5556X.........X6655X...................        ",
"               ...X65556X.........X66665X..................        ",
"               ...X5665X..........X66655X..................        ",
"               ...X5566X...........X6655X..................        ",
"               ...X5566X...........X6XXX...................        ",
"               ....X6XXX...........XX+++X..................        ",
"               ....XX+++X..........X+++++XX................        ",
"               ....X+++++X.........X+++++++X...............        "
};
