/* XPM */
static char *_4b671a99fef4ff796a77cd3f444e8a4uDKjhgEGXIAmqBgZ[] = {
/* columns rows colors chars-per-pixel */
"35 35 189 2 ",
"   c None",
".  c #482C35",
"X  c #4B2F36",
"o  c #4D3136",
"O  c #503237",
"+  c #573739",
"@  c #593B3B",
"#  c #5C3C3D",
"$  c #603E3D",
"%  c #69413E",
"&  c #6E443F",
"*  c #71443F",
"=  c #624140",
"-  c #6A4543",
";  c #6B4942",
":  c #6A4944",
">  c #764941",
",  c #734B46",
"<  c #754D48",
"1  c #795048",
"2  c #7B514B",
"3  c #7D534C",
"4  c #875647",
"5  c #8A5244",
"6  c #87564A",
"7  c #80564C",
"8  c #81564D",
"9  c #80594B",
"0  c #8F5C4B",
"q  c #8A5C50",
"w  c #8A5D50",
"e  c #8A5C51",
"r  c #8C5D50",
"t  c #8C5F52",
"y  c #8C604F",
"u  c #906352",
"i  c #906353",
"p  c #926753",
"a  c #946652",
"s  c #956556",
"d  c #9F6852",
"f  c #9A6C56",
"g  c #A76D53",
"h  c #A06D54",
"j  c #A66E55",
"k  c #A56D56",
"l  c #A86C52",
"z  c #A96D53",
"x  c #A86E55",
"c  c #AA6E54",
"v  c #AA6F54",
"b  c #AB6F55",
"n  c #A86E56",
"m  c #A46F5C",
"M  c #A97156",
"N  c #A97057",
"B  c #AA7056",
"V  c #AC7056",
"C  c #AD7157",
"Z  c #AE7157",
"A  c #A97158",
"S  c #A97159",
"D  c #AA7359",
"F  c #AC7158",
"G  c #AF7358",
"H  c #AD735B",
"J  c #A8725E",
"K  c #AC745D",
"L  c #AF785B",
"P  c #A9795C",
"I  c #B07359",
"U  c #B0745A",
"Y  c #B2755B",
"T  c #B2775B",
"R  c #B2765C",
"E  c #B3775C",
"W  c #B4775C",
"Q  c #B5785D",
"!  c #B5795E",
"~  c #B6795F",
"^  c #B57A5F",
"/  c #B77D5D",
"(  c #AA7560",
")  c #B37960",
"_  c #B77A60",
"`  c #B77B60",
"'  c #B77C60",
"]  c #B67D65",
"[  c #B77D65",
"{  c #B87B60",
"}  c #B97C60",
"|  c #B87C61",
" . c #B97C61",
".. c #BA7D61",
"X. c #B87D62",
"o. c #BA7D62",
"O. c #BB7D63",
"+. c #BB7E63",
"@. c #BA805F",
"#. c #BB815F",
"$. c #B88062",
"%. c #BB8065",
"&. c #BB8066",
"*. c #BD8165",
"=. c #BE8165",
"-. c #BC8066",
";. c #BD8066",
":. c #BD8167",
">. c #BE8267",
",. c #BF8267",
"<. c #BE8965",
"1. c #BA836B",
"2. c #C08367",
"3. c #C58D66",
"4. c #CA8E67",
"5. c #C08368",
"6. c #C18468",
"7. c #C18469",
"8. c #C18569",
"9. c #C0856B",
"0. c #C2866B",
"q. c #C3866B",
"w. c #C3876B",
"e. c #C4866A",
"r. c #C5876A",
"t. c #C4876B",
"y. c #C2866C",
"u. c #C3886A",
"i. c #C0886E",
"p. c #C1886F",
"a. c #C5896C",
"s. c #C68C6E",
"d. c #C78D6E",
"f. c #CB8E6A",
"g. c #CA8F6A",
"h. c #CB8D6C",
"j. c #C88E6F",
"k. c #CC8F6E",
"l. c #CA936A",
"z. c #CC9068",
"x. c #CE9269",
"c. c #CD906C",
"v. c #CE916C",
"b. c #CE916D",
"n. c #CF926D",
"m. c #CE916E",
"M. c #D1956E",
"N. c #D4976E",
"B. c #D5976F",
"V. c #D29671",
"C. c #D69971",
"Z. c #D59973",
"A. c #D89B70",
"S. c #D89B71",
"D. c #D99B71",
"F. c #DA9D70",
"G. c #DB9D71",
"H. c #D99D72",
"J. c #DD9F71",
"K. c #DEA172",
"L. c #DDA479",
"P. c #E3A673",
"I. c #E5A673",
"U. c #E5A773",
"Y. c #E3A674",
"T. c #E3A774",
"R. c #E2A675",
"E. c #E3A775",
"W. c #E2A676",
"Q. c #E4A674",
"!. c #E5A674",
"~. c #E4A774",
"^. c #E5A774",
"/. c #E5A775",
"(. c #E3A877",
"). c #E5A874",
"_. c #E4A875",
"`. c #E6A874",
"'. c #E7A975",
"]. c #E4A876",
"[. c #E6A977",
"{. c #E8AA76",
"}. c #E0A779",
"|. c #E1A878",
" X c #E1A97A",
".X c #E1A87B",
"XX c #E1A97B",
"oX c #E3AB7C",
"OX c #E2AB80",
/* pixels */
"                                                                      ",
"                                                                      ",
"                                                                      ",
"                                                                      ",
"                                                                      ",
"                                                                      ",
"                                                                      ",
"                                                                      ",
"                                                                      ",
"                            D +.V.Y._.OX                              ",
"                        N %.R _ 5.N.Y.Z.k.XX                          ",
"                        D +.2.Y _ N.A.t.m.}.                          ",
"                          D ) k H f.f.u.L.                            ",
"                            = + * 5 > :                               ",
"                        i.7.( m $.4.3.l.(.XX                          ",
"                      i.7.W =.t.i P {._.U._.oX                        ",
"                    i.7.+.{ 2.q o % @._.^.^.^.XX                      ",
"                    y.7.+.=.t 8 & 4 N / Y.^.U.Y.                      ",
"                  1._ =.{ =.$ s 6 h x.@.P.^.U.Y.XX                    ",
"                  Q R Q Q =.q 8 # ; <._.^.^.^.^._.                    ",
"                  Y Q n _ 7.t.q O @ a x.^.^.^.^._.                    ",
"                  ' H l I =.J [ < p L 0 ^.^.^.J.Y.                    ",
"                  Z +.Y +.=.2 t - 9 f y K.^.F.m.F.                    ",
"                  n Z +.Z +.%.2 . . i M.m.F.m.A.j.                    ",
"                    n n l n +.[ , 3 =.m.Z.j.A.d.                      ",
"                      k g g N H d K 7.7.a.7.d.                        ",
"                                                                      ",
"                                                                      ",
"                                                                      ",
"                                                                      ",
"                                                                      ",
"                                                                      ",
"                                                                      ",
"                                                                      ",
"                                                                      "
};
