/* XPM */
static char *fa3b2c03780244cfb3a905a66e949a9eWtOQwJzRfBPSlABF[] = {
/* columns rows colors chars-per-pixel */
"36 53 206 2 ",
"   c None",
".  c #040202",
"X  c #0B0403",
"o  c #050904",
"O  c #0B0A06",
"+  c #0B050A",
"@  c #0E0A0A",
"#  c #140404",
"$  c #1C0505",
"%  c #120907",
"&  c #1C0A07",
"*  c #11070C",
"=  c #1B070B",
"-  c #140B0B",
";  c #1B0C0C",
":  c #15140C",
">  c #1C110C",
",  c #0B0614",
"<  c #0C0B12",
"1  c #09061D",
"2  c #1A0D11",
"3  c #1D0F1C",
"4  c #130816",
"5  c #1D1412",
"6  c #14131D",
"7  c #181516",
"8  c #220605",
"9  c #23050D",
"0  c #2B060D",
"q  c #230B0C",
"w  c #2C0B0B",
"e  c #2A0C05",
"r  c #340E0E",
"t  c #22130E",
"y  c #2E110F",
"u  c #35120F",
"i  c #210D12",
"p  c #2C0D16",
"a  c #220F1D",
"s  c #2F0E1A",
"d  c #330B11",
"f  c #3C0C13",
"g  c #3E0D19",
"h  c #231313",
"j  c #2B1413",
"k  c #251A15",
"l  c #2C1B15",
"z  c #24141B",
"x  c #2A121C",
"c  c #25191A",
"v  c #2C1D1B",
"b  c #341415",
"n  c #3C1416",
"m  c #351A17",
"M  c #391A15",
"N  c #36141B",
"B  c #3C131A",
"V  c #331C1B",
"C  c #3D1C1B",
"Z  c #26221A",
"A  c #2D221C",
"S  c #272017",
"D  c #33231C",
"F  c #3B241D",
"G  c #342017",
"H  c #140F23",
"J  c #151121",
"K  c #1A1429",
"L  c #211423",
"P  c #25172B",
"I  c #341621",
"U  c #3A1F26",
"Y  c #311A21",
"T  c #231A37",
"R  c #25262D",
"E  c #2B2A2E",
"W  c #272426",
"Q  c #332422",
"!  c #3A2422",
"~  c #332926",
"^  c #3C2B24",
"/  c #3D2A29",
"(  c #362A29",
")  c #2D2C30",
"_  c #37263B",
"`  c #53160F",
"'  c #440A13",
"]  c #440D1A",
"[  c #4A0C14",
"{  c #5C0216",
"}  c #421514",
"|  c #42151B",
" . c #4A121C",
".. c #431C1B",
"X. c #471C18",
"o. c #55151E",
"O. c #531E1D",
"+. c #65001A",
"@. c #681F1E",
"#. c #701915",
"$. c #41241E",
"%. c #4C211E",
"&. c #51251F",
"*. c #5C2D1C",
"=. c #430220",
"-. c #4C1324",
";. c #441C22",
":. c #431322",
">. c #561325",
",. c #55162B",
"<. c #591B23",
"1. c #6A0F23",
"2. c #7E0023",
"3. c #651625",
"4. c #6B1527",
"5. c #631D24",
"6. c #6A1629",
"7. c #73152A",
"8. c #631F34",
"9. c #442426",
"0. c #4C2322",
"q. c #432C24",
"w. c #4E2A24",
"e. c #4F222A",
"r. c #432B2B",
"t. c #4B2C2D",
"y. c #542326",
"u. c #5B2225",
"i. c #5B242A",
"p. c #552B29",
"a. c #572A29",
"s. c #5C362A",
"d. c #5E3225",
"f. c #412E39",
"g. c #5F2631",
"h. c #5C3432",
"j. c #59353B",
"k. c #5C3B38",
"l. c #573736",
"z. c #63242A",
"x. c #612C2B",
"c. c #6D2925",
"v. c #663429",
"b. c #79352B",
"n. c #732C33",
"m. c #7D2A3A",
"M. c #653C33",
"N. c #6A3735",
"B. c #72393A",
"V. c #5E4336",
"C. c #79412D",
"Z. c #352C49",
"A. c #3C3655",
"S. c #4C2B45",
"D. c #41384D",
"F. c #45304E",
"G. c #563B42",
"H. c #413754",
"J. c #414156",
"K. c #6E4B47",
"L. c #775A4E",
"P. c #84022C",
"I. c #9E0431",
"U. c #A1002A",
"Y. c #A1063B",
"T. c #B00C37",
"R. c #903C33",
"E. c #95283A",
"W. c #AF212B",
"Q. c #AE2933",
"!. c #BD263E",
"~. c #B51C48",
"^. c #C42D44",
"/. c #884845",
"(. c #8D504B",
"). c #985D4F",
"_. c #82585C",
"`. c #AB5E4E",
"'. c #AB5B5E",
"]. c #956855",
"[. c #B96E59",
"{. c #9A6F6F",
"}. c #987466",
"|. c #A66966",
" X c #B47B74",
".X c #C76960",
"XX c #EE7968",
"oX c #AB8377",
"OX c #E4805A",
"+X c #C78175",
"@X c #D99574",
"#X c #D98A77",
"$X c #FC8E6D",
"%X c #FF956D",
"&X c #EB8879",
"*X c #FA9679",
"=X c #FFA36B",
"-X c #B2A587",
";X c #DA9C8C",
":X c #CB8B86",
">X c #FC8D83",
",X c #E39184",
"<X c #E29C93",
"1X c #DFAE8C",
"2X c #FFA489",
"3X c #FFADA2",
/* pixels */
"                                                                        ",
"                          X c Q c                                       ",
"                        5 / 9.;.9.h                                     ",
"                      X j C n '  .t.@                                   ",
"                    X v t.e.y.<.z.k.V X                                 ",
"                  + , 3 z j r X.%...w X .                               ",
"                . * , + X # &.].}.oXw X                                 ",
"                  o O & s.d.@XC.e }.b                                   ",
"                    # w ).`.2X&X[.+Xn                                   ",
"                      y |.&X*X%X*X#Xu                                   ",
"                        y.XX$X=X=X[.w                                   ",
"                      X p.>XXXOX@X].q                                   ",
"                    w r.} .X&XR.u &                                     ",
"                  y a.t._./.E.{ v ~                                     ",
"              8 8 p.M.C {.n.I.Y.>.t.r.%                                 ",
"            ; X.e M.M.j L.;X!.T.m.r j.r.%                               ",
"            ;.<.w M w.G -X1X^.Q.:Xh.;.l.j                               ",
"          # ,.8.f r c.*.V.;X^.W.<XK.h k.$.#                             ",
"          # ..-.0 v.b.v.8 B.~.U.'.l.j F h.8                             ",
"          M 0.N = X.b.s.q B +.P.n.0.N C M.w                             ",
"        $ n | 2 5 h k.j.i U | ' ' ] B ..N.b X                           ",
"        n z.-.i z h ! G.2 v D M f -.:.0 e.j                             ",
"      w O.c.<.0 s x ; c * 4 2 ; 9 I I = r.v @                           ",
"      w x.5.[ 0 p 2 _ Z.H.D.D.H.A.T H H H 6 < , , , 1 1 1 , + E W <     ",
"      b u.` @.4.] h L P _ S.S.F.A.Z.J.A.K J 6 3 a 6 J J J 6 6 R ) E 7   ",
"    # m %.*.#.2.7.y.V C n g.|._.f.+ R R 4 = ! w...t X                   ",
"    @ h b &.5.1.3.u.p.0.} (.3X X~ ( c W z p } (.|.k.                    ",
"      X = h d ] ] f b m r /.,XB.i 2 < 6 a s 0./.(.8                     ",
"            # = = q % - w x.x.d z @ < 6 L x w x.w.                      ",
"              & n g N j % q 9 p V - @ 7 z z @ X                         ",
"              m g.i.;.j % 5 x I m > @ @ 5 5 .                           ",
"              n z. .B ; > % z ! q v % % h c .                           ",
"            q 5.6.] m = S c i ; k A h 5 - 2 X                           ",
"            q 4.3.B m q ! Q Y U A S v v - h X                           ",
"            0 7.o.m V q $.D v - 7 Z v v ; 5 .                           ",
"            f 4.X.S > n } l ; o o 5 v V - 5 .                           ",
"          $ u.5.M Z ; ..0.j @ + . 5 A Q q ; .                           ",
"          $ i.o.b v i n ..& # + . 5 v D q 5 .                           ",
"          $ p.<.| N q V l X X + + % l ! ; 5 X                           ",
"            C i.>.=.9 k : X . . . X l F k ;                             ",
"              r ,.,.p : o         X l ! / @                             ",
"              j b q h -           X k Q ~ o                             ",
"            - ^ ! V 2             ; l l A @                             ",
"            > F V v ;           . 5 D D -                               ",
"            t F / k .           . h D ^ -                               ",
"          $ F q.! :             . t G ^ &                               ",
"          # $.q.l X             . t F / ;                               ",
"          & $.q.v X             . h G ! 5                               ",
"          l $.^ k               . h v D Q o                             ",
"        . v ! A @                 - v Q ~ o                             ",
"          v ! 5 O                 X - @ o                               ",
"          X - o .                 . X % o o                             ",
"          X X O o .               . X o @ o o o                         "
};
