/* XPM */
static char *b94a9af89d04419dfe0d5af57f7ecc89WwCPrmO1OGvlhMBr[] = {
/* columns rows colors chars-per-pixel */
"24 35 143 2 ",
"   c None",
".  c #040403",
"X  c #0B0504",
"o  c #060804",
"O  c #0D0C07",
"+  c #0B030A",
"@  c #0D0A09",
"#  c #130706",
"$  c #110A07",
"%  c #11070A",
"&  c #150C0B",
"*  c #1A0B0B",
"=  c #16130E",
"-  c #1C110D",
";  c #0E0C15",
":  c #0E0B1A",
">  c #140D14",
",  c #1C0E13",
"<  c #100B1A",
"1  c #1A0D1A",
"2  c #1C1212",
"3  c #16131A",
"4  c #1B131B",
"5  c #1C1B1F",
"6  c #280A07",
"7  c #230C0B",
"8  c #2A0E0D",
"9  c #330D0D",
"0  c #24110E",
"q  c #2A120E",
"w  c #240E12",
"e  c #2C0D13",
"r  c #300B13",
"t  c #330E1A",
"y  c #231514",
"u  c #2A1314",
"i  c #251A15",
"p  c #2C1B16",
"a  c #22131A",
"s  c #2A1619",
"d  c #251C1B",
"f  c #2C1C1C",
"g  c #331414",
"h  c #3B1314",
"j  c #3B1B17",
"k  c #311119",
"l  c #3C131B",
"z  c #341A1B",
"x  c #3B1B1B",
"c  c #2F201B",
"v  c #35231C",
"b  c #3C251E",
"n  c #0D0A22",
"m  c #1D1628",
"M  c #1C1929",
"N  c #2D1921",
"B  c #20182C",
"V  c #2C2320",
"C  c #28272B",
"Z  c #342321",
"A  c #392121",
"S  c #3C2823",
"D  c #392428",
"F  c #292035",
"G  c #2E233B",
"H  c #372D3F",
"J  c #450C18",
"K  c #4F0D19",
"L  c #411716",
"P  c #4B1117",
"I  c #471A15",
"U  c #44131B",
"Y  c #4B131D",
"T  c #451B1C",
"R  c #51131D",
"E  c #501B1F",
"W  c #61161E",
"Q  c #6E161C",
"!  c #50201F",
"~  c #582118",
"^  c #410B21",
"/  c #451E21",
"(  c #431E2F",
")  c #501523",
"_  c #541C24",
"`  c #501D28",
"'  c #7D082C",
"]  c #641223",
"[  c #641927",
"{  c #442423",
"}  c #4F2423",
"|  c #452A24",
" . c #4D2A2D",
".. c #562223",
"X. c #5B2125",
"o. c #522D26",
"O. c #5B2F22",
"+. c #542D29",
"@. c #5A2C2B",
"#. c #533029",
"$. c #583435",
"%. c #612021",
"&. c #682424",
"*. c #602B24",
"=. c #673126",
"-. c #65342E",
";. c #613232",
":. c #693C3C",
">. c #713C37",
",. c #763E3A",
"<. c #754C3B",
"1. c #372D45",
"2. c #313441",
"3. c #5A3D53",
"4. c #6A3B4E",
"5. c #7C4C48",
"6. c #7E5C51",
"7. c #831632",
"8. c #961435",
"9. c #941B35",
"0. c #AF2E44",
"q. c #874743",
"w. c #895043",
"e. c #94534C",
"r. c #865A57",
"t. c #BF5C5B",
"y. c #886856",
"u. c #8B605B",
"i. c #A66056",
"p. c #A26C51",
"a. c #A26458",
"s. c #BD6D58",
"d. c #C1454E",
"f. c #CA4E5A",
"g. c #CB5057",
"h. c #A48771",
"j. c #E3885F",
"k. c #D58568",
"l. c #F8846F",
"z. c #FF9F6F",
"x. c #E08D74",
"c. c #FC9276",
"v. c #D68A82",
/* pixels */
"                    2                           ",
"                y A { z                         ",
"              * x T P  .y                       ",
"            + 1 f h @.@.0 .                     ",
"            + % 7 -.<.6.g                       ",
"            X q w.x.s.a.}                       ",
"                i.c.z.k.                        ",
"                q.l.j.p.                        ",
"              | >.t.&.p                         ",
"          6 +.+.r.9.' { Z                       ",
"        j h o.| h.g.0.;. .s                     ",
"        ` U I O.y.f.d.u.A |                     ",
"      8 T r *.=.g 7.8.:.s #.8                   ",
"      h l , x $.s U K Y l +.u                   ",
"    9 X.Y w u D , s 8 l t x u                   ",
"    L %.P e a G 1.H 1.G B m 3 ; : : n : 3 C 3   ",
"    x ~ Q ] x N ( 4.3.F 2.M , f s > < ; > 5 4   ",
"    u T W ] ..{ ..v.r.d d a k ,.5.              ",
"      & 8 r e 7 T e./ > ; 4 e -.;.              ",
"        # k l w * e k w @ 4 , *                 ",
"        6 X._ u & a z y $ 2 2                   ",
"        h [ U 0 i y s f y 2 &                   ",
"        J ] z u v f a d f 2 &                   ",
"        R E i g T 2 o = c y &                   ",
"      6 _ L s g j % o = c u &                   ",
"        } Y t u 0 X + @ p p *                   ",
"        g ) ^ - O     X p Z *                   ",
"        - z u &       # p Z $                   ",
"        i Z s         - c i                     ",
"        p S 2         - v i                     ",
"        { v $         - b i                     ",
"      7 { v           - v f                     ",
"      y b y           & f V                     ",
"      2 i @             $ @                     ",
"        X o .         . o @ o o                 "
};
