/* XPM */
static char *fddb5c69b804469fe819d856e76f424cXu6R1frv1DFDHXZH[] = {
/* columns rows colors chars-per-pixel */
"35 35 188 2 ",
"   c #000506",
".  c #000806",
"X  c #080904",
"o  c #00060A",
"O  c #010C0D",
"+  c #0C0D0C",
"@  c #100C0B",
"#  c #04110E",
"$  c #0B110F",
"%  c #13100F",
"&  c #000D12",
"*  c #0C0E11",
"=  c #031313",
"-  c #0A1313",
";  c #001817",
":  c #091816",
">  c #041619",
",  c #0B161A",
"<  c #061A1B",
"1  c #0B1B1C",
"2  c #111215",
"3  c #101C1C",
"4  c #0C201E",
"5  c #11201D",
"6  c #0A1E21",
"7  c #0C2222",
"8  c #0E262A",
"9  c #0E2B2C",
"0  c #122223",
"q  c #132927",
"w  c #192728",
"e  c #152B2C",
"r  c #1A2C2C",
"t  c #0F2E31",
"y  c #152D30",
"u  c #1A2D31",
"i  c #0F3037",
"p  c #0B353A",
"a  c #0B383E",
"s  c #153235",
"d  c #1C3334",
"f  c #15353B",
"g  c #1B363C",
"h  c #153B3E",
"j  c #1B3A3C",
"k  c #213536",
"l  c #233738",
"z  c #243B3C",
"x  c #2B3D3D",
"c  c #133D43",
"v  c #1A3F45",
"b  c #233E43",
"n  c #2A3D41",
"m  c #1B4345",
"M  c #1D454A",
"N  c #1D484D",
"B  c #17464C",
"V  c #1F4B51",
"C  c #244345",
"Z  c #2C4344",
"A  c #23464B",
"S  c #2B454A",
"D  c #23494C",
"F  c #2B4B4C",
"G  c #314546",
"H  c #34454A",
"J  c #344A4C",
"K  c #3A4C4E",
"L  c #3B514F",
"P  c #244D52",
"I  c #2A4D51",
"U  c #344E51",
"Y  c #3B4E55",
"T  c #2B5254",
"R  c #255359",
"E  c #2C555A",
"W  c #2D595C",
"Q  c #215155",
"!  c #355254",
"~  c #3B5454",
"^  c #3F5855",
"/  c #33565B",
"(  c #3B5559",
")  c #335C5D",
"_  c #3C5B5C",
"`  c #2F5F63",
"'  c #325C62",
"]  c #395F60",
"[  c #346266",
"{  c #3C6465",
"}  c #3E6867",
"|  c #3D6469",
" . c #3C696D",
".. c #3F7074",
"X. c #405B56",
"o. c #475659",
"O. c #425B5C",
"+. c #455555",
"@. c #4D605E",
"#. c #405F62",
"$. c #4A5E60",
"%. c #436264",
"&. c #4A6163",
"*. c #426569",
"=. c #436A6C",
"-. c #4B6B6D",
";. c #546B6B",
":. c #436D71",
">. c #4B6E72",
",. c #477076",
"<. c #4C7075",
"1. c #477479",
"2. c #4C7579",
"3. c #4D7D7D",
"4. c #547375",
"5. c #5D7374",
"6. c #52767A",
"7. c #537B7D",
"8. c #5A7C7E",
"9. c #627B7E",
"0. c #4D7C81",
"q. c #517780",
"w. c #547D83",
"e. c #5B7E83",
"r. c #5B7F89",
"t. c #607E86",
"y. c #4E8387",
"u. c #548285",
"i. c #5B8384",
"p. c #558489",
"a. c #5B858B",
"s. c #56898E",
"d. c #5C898D",
"f. c #5C8C91",
"g. c #638385",
"h. c #6A8485",
"j. c #63858A",
"k. c #6A868B",
"l. c #648A8D",
"z. c #6B8A8C",
"x. c #728C8F",
"c. c #718289",
"v. c #638C92",
"b. c #6C8E93",
"n. c #718D92",
"m. c #7B8C93",
"M. c #639296",
"N. c #6B9296",
"B. c #669499",
"V. c #6B959A",
"C. c #6D9A9E",
"Z. c #65989B",
"A. c #739193",
"S. c #7A9195",
"D. c #7E9897",
"F. c #72969A",
"G. c #7D969B",
"H. c #729A9E",
"J. c #7B9B9D",
"K. c #6F95A0",
"L. c #6C9DA1",
"P. c #719EA3",
"I. c #789EA2",
"U. c #75A0A6",
"Y. c #7EA3A5",
"T. c #7FABAE",
"R. c #7AA2AA",
"E. c #7EB0B1",
"W. c #819699",
"Q. c #849A9B",
"!. c #84A7A9",
"~. c #85ABAE",
"^. c #8CAAAE",
"/. c #88A2A3",
"(. c #83ADB3",
"). c #8CAEB1",
"_. c #94ACB4",
"`. c #83B2B6",
"'. c #8DB4B7",
"]. c #93B3B5",
"[. c #93B6B9",
"{. c #9BB7BC",
"}. c #9BBBBC",
"|. c #95B8BA",
" X c #A2BDBE",
".X c #A3BFC2",
"XX c #95C0C7",
"oX c #A7C2C5",
/* pixels */
"= O & z >.) '  .:.[ | | *.%.-.C O = O = = z g.4.8.i.4.e.8.i.g.~ # 5 O ",
", 1 o b F.H.C.v.v.N.N.v.b.F.A.%.O O = =   J }.}.[.'.[.|.!.[.}.g.  = O ",
"o l ;._ ] ) P 1.v.q.' ) ) ) _ ( ;.x O x 9.z.F.z.j.l.b.I.~.Y.b.g.h.o.= ",
"O K /.-.m m c [ B.:.c N M h m %.Q.+.O O. XJ.4.8.i.u.7.v.).H.7.A.oX5.O ",
"O k ~ F m ` d. .W ' M P D D M I &.k o J A.j.j.V.T.B.d.a.v.v.a.g.G.O.& ",
"= e S D m [ B...a P D D P P D m z u O b k.i.i.v.`.P.a.u.a.a.a.a.z.O.& ",
"= 7 U C m E [ R N V N M D m D D C z & C N.i.7.V.M.M.0.a.M.v.V.F.g.( & ",
"O y C F T m Q B V V P N P M P C J y O C j.l.v.u.u.p.p.d.0.V.XXH.l.O.= ",
"= 8 F D D c p c N V D D D N M D S e & C b.7.E 1.f.u.w.d.p.a.N.l.j._ O ",
"& 8 F C A h p c R N m D P D m D U d & b k.<.I | p.f.a.d.f.a.a.w.k.X.O ",
"= e J S F M m M P c p v P D M D C d o b z.e.<.7.v.1.E :.l.a.w.j.z.X.O ",
"O q Z C F A D M D f i h m D D D G l O Z h.g.l.l.l.=.P =.a.l.j.e.g.~ # ",
"O 0 l j F D I D I A b j f m D C k w   r &.-.g.8.i.i.7.*./ >.j.-.;.Z # ",
"= 7 r d S C F A A A A j t j C d w 0 O e J &.j.g.j.l.l.>.A #.k.4.Z d = ",
"O = = 7 j s j s g s g s 9 s j 9 : - O = 6 z O._ _ ! ) #.I U _ S 7 1 = ",
"- - O 1 d 9 s 9 y 8 y s e e s 7 O X - $ O e J J J J F U U ! ~ l O = = ",
"+ 2 o - 1 > > = 6 = < 6 > > > : $ X % % O = 7 4 1 : 0 7 < 7 1 : = $ - ",
"+ 2 2 O = = O 6 > > & & > = & = + + + @ - = = O = - o O ; = = = - $ X ",
"* *   K D.x.n.k.x.S.S.S.h.S.G.$.. - 2 *   x D.S.c.m.x.S.k.A.W.o.O : 3 ",
"O = & &.].).[.^.].].^.].^.].].4.= = o , < ~ [.)._._._.].~.[.{.9.= = O ",
"& K Q.g.j.l.i.H.(.Y.7.F.[.V.j.z.S.$.& H G.l.l.l.j.k.r.N.`.U.a.n.Q.@.O ",
"o O..XJ.i.u.i.M.(.P.w.V.'.V.a.V.oX5.o Y {.I.a.a.a.r.a.N.`.L.q.b. X5.O ",
"& U j.i.d.f.E.L.f.p.p.f.v.d.a.7.A.! o S b.a.p.d.(.K.a.a.s.f.v.a.z.O.O ",
"O C A.e.i.C.`.L.u.p.a.u.a.d.p.l.j.( & b b.u.0.P.(.R.w.p.f.0.a.a.k.O.O ",
"& C z.i.a.v.s.p.f.w.a.a.0.B.(.V.l._ o g l.a.p.d.v.a.p.p.y.Z.(.H.l._ & ",
"O S n.r.2.p.a.p.a.p.a.f.a.K.(.H.g.~ o n A.i.7.a.i.e.d.f.u.M.(.H.l._ = ",
"O S k.>./ :.a.d.p.a.a.a.r.a.v.l.z.^ O n z.=.W { j.e.i.d.u.d.N.e.g.~ O ",
"O H k.-.T  .a.a.d.a.6.e.l.w.w.i.k.L   x z.=.) } j.j.w.a.p.3.i.g.z.^ O ",
"o J x.g.2.8.l.u.a.,.E =.v.v.a.i.x.~ o G S.8.6.i.j.6.E  .d.d.e.g.S.O.O ",
"O Z 9.g.j.d.l.u.a.=.E | 6.i.a.8.h.~ O x 9.7.a.i.l.<.P W u.d.e.8.9.^ O ",
"O l O.-.i.i.i.i.a.i.8.>.) =.a.6.O.z o u O.-.l.a.j.j.a.1.`  .a.e.O.Z O ",
"O r J %.g.i.8.i.e.j.j.=.A { j.-.J k & r S _ l.e.t.e.j.>.M  .b.%.Z l O ",
"- & = k ^ _ ! ! ~ ( ( U U ^ ! z : = - = = d ~ _ ( ( ( ! ( ( U Z = - - ",
"& O - r G K J K K K K H G K J l O X - - - r J J J K K H K K H x - + + ",
"+ - = - 1 1 < 1 1 , , 1 , : : = $ + - $ O - 3 = > < > > > 1 : - - + + "
};
