/* XPM */
static char *aa8391e86a714a229c9043c87d975673vnKuexbnTOBngl8P[] = {
/* columns rows colors chars-per-pixel */
"10 10 96 2 ",
"   c #00080C",
".  c #001419",
"X  c #00181A",
"o  c #031B1F",
"O  c #051D21",
"+  c #051E23",
"@  c #092125",
"#  c #0F282C",
"$  c #0C2B2D",
"%  c #132B2F",
"&  c #112D31",
"*  c #112E32",
"=  c #0C3030",
"-  c #0E3232",
";  c #123030",
":  c #1B3337",
">  c #1F373B",
",  c #1B3D3E",
"<  c #233F43",
"1  c #243C40",
"2  c #253D41",
"3  c #263E42",
"4  c #204243",
"5  c #234044",
"6  c #214545",
"7  c #284146",
"8  c #2A4649",
"9  c #2B474A",
"0  c #2D4549",
"q  c #2E474C",
"w  c #254949",
"e  c #2A494B",
"r  c #2D4B4D",
"t  c #284C4C",
"y  c #294D4D",
"u  c #2A4E4E",
"i  c #31494D",
"p  c #324A4E",
"a  c #334C51",
"s  c #324E52",
"d  c #354D51",
"f  c #365557",
"g  c #345657",
"h  c #3A5358",
"j  c #3B5459",
"k  c #3B575A",
"l  c #385A5B",
"z  c #3C5A5C",
"x  c #3A5C5D",
"c  c #3D5D5C",
"v  c #3C5E5F",
"b  c #3D5F60",
"n  c #3E6061",
"m  c #3F6162",
"M  c #40605F",
"N  c #425E61",
"B  c #435F63",
"V  c #446262",
"C  c #476366",
"Z  c #456B6C",
"A  c #476A6C",
"S  c #4D6F70",
"D  c #4A7071",
"F  c #527070",
"G  c #507375",
"H  c #527475",
"J  c #557477",
"K  c #577679",
"L  c #5C787C",
"P  c #5D797D",
"I  c #5C7B7D",
"U  c #587E7F",
"Y  c #5C7E7F",
"T  c #617A7F",
"R  c #617F81",
"E  c #5A8081",
"W  c #5B8182",
"Q  c #618083",
"!  c #638183",
"~  c #638787",
"^  c #658487",
"/  c #658B8C",
"(  c #698988",
")  c #698B8C",
"_  c #6E8E8D",
"`  c #6D8C8E",
"'  c #6F8D8F",
"]  c #728F93",
"[  c #719394",
"{  c #739797",
"}  c #749697",
"|  c #789696",
" . c #79989A",
".. c #7B989C",
"X. c #7BA1A2",
"o. c #83A6A8",
/* pixels */
"O k m x 3 o N I F ; ",
"3 C m l d i '  .| V ",
"% 8 w , > 0 ! Y ' M ",
": 8 t 6 3 i R H ( v ",
"O * = = @ @ z g g # ",
". 5 t t #   r g e X ",
"k ..X.o.T q ' { } b ",
"h ] E / I a ' ~ [ m ",
"a ! U E I 7 ^ G ) v ",
"< J D Z N * K Z S 4 "
};
