/* XPM */
static char *_45ae941ffd44464d1d12e66091b7fa3jEw4MDNmM6n8TjJu[] = {
/* columns rows colors chars-per-pixel */
"24 35 111 2 ",
"   c None",
".  c #050504",
"X  c #080706",
"o  c #0A0807",
"O  c #0D0A0A",
"+  c #130D0C",
"@  c #1E0F0E",
"#  c #16110F",
"$  c #1D130D",
"%  c #130F10",
"&  c #180F10",
"*  c #151314",
"=  c #1C1312",
"-  c #1F1916",
";  c #23140F",
":  c #2B120F",
">  c #221413",
",  c #2A1513",
"<  c #211915",
"1  c #2D1A14",
"2  c #23171A",
"3  c #241B1C",
"4  c #2B1A1B",
"5  c #321512",
"6  c #321A16",
"7  c #3C1A17",
"8  c #32171E",
"9  c #331C1A",
"0  c #391D1B",
"q  c #2B201D",
"w  c #332015",
"e  c #3A2417",
"r  c #34221A",
"t  c #3A241B",
"y  c #3D281C",
"u  c #1A1A22",
"i  c #1E1E28",
"p  c #1C1E30",
"a  c #141C38",
"s  c #201E27",
"d  c #2E1C21",
"f  c #331C22",
"g  c #18203E",
"h  c #262027",
"j  c #23222C",
"k  c #29242D",
"l  c #352323",
"z  c #3D2323",
"x  c #272633",
"c  c #2A2631",
"v  c #342B31",
"b  c #322E3D",
"n  c #431C17",
"m  c #461D19",
"M  c #4B1F1A",
"N  c #45221F",
"B  c #4D211E",
"V  c #42291C",
"C  c #432621",
"Z  c #4D2321",
"A  c #432922",
"S  c #492B24",
"D  c #512421",
"F  c #5F2721",
"G  c #522D27",
"H  c #552E28",
"J  c #4E3528",
"K  c #563927",
"L  c #5B332B",
"P  c #4A2F35",
"I  c #4D3F35",
"U  c #612722",
"Y  c #7E242B",
"T  c #60352E",
"R  c #60392F",
"E  c #622F30",
"W  c #594135",
"Q  c #534438",
"!  c #59493B",
"~  c #65402E",
"^  c #654031",
"/  c #6C4631",
"(  c #78503B",
")  c #1B2341",
"_  c #2F2F40",
"`  c #323245",
"'  c #293050",
"]  c #704843",
"[  c #794943",
"{  c #6B5C4A",
"}  c #7F5E50",
"|  c #776751",
" . c #802530",
".. c #963D41",
"X. c #8F5644",
"o. c #8C5C44",
"O. c #925C46",
"+. c #995C4A",
"@. c #B54542",
"#. c #A35A54",
"$. c #9C6349",
"%. c #B1695E",
"&. c #B97B59",
"*. c #C07A59",
"=. c #C87B61",
"-. c #C6825B",
";. c #D88964",
":. c #C29479",
">. c #EC996A",
",. c #F59D6F",
"<. c #FCA471",
/* pixels */
"                                                ",
"                                                ",
"                            >                   ",
"                          0 z r                 ",
"                        4 z l S 9               ",
"                      O > > S ~ r X             ",
"                    o O < J o.( K               ",
"                      . ^ -.>.*./               ",
"                        S ;.<.,.R               ",
"                      6 A &.=.O.A               ",
"                    1 G ! [ E 9 ,               ",
"                @ 1 L L Q .. .l H >             ",
"                m 6 G L | %.#.I H =             ",
"                M 9 L H { :.@.W S &             ",
"              5 B 4 T C l } Y 1 C =             ",
"              B 0 > G t 4 f 8 4 4 6             ",
"            5 N > 6 N t 4 f 4 4 1 ,             ",
"        O O m Z > > 0 0 4 f 4 2 , ,             ",
"        + + 5 D > > 6 = d f 4 - 6 ;             ",
"              7 k c 6 * 3 f 2 * B ,             ",
"              , 3 b ` x 2 f * > B :             ",
"                > $.] b _ 2 * 0 M               ",
"              : m X.+.2 x j s 0 n o             ",
"              7 F 6 > c ' g p v h *             ",
"              M U 4 1 k ) a P O.3 h i           ",
"              M U , e r % O > r 4 t q s u       ",
"              m D > e V $ o X o < r t $         ",
"                4 > e V =         < y 6         ",
"                  > t r #         - t 1         ",
"                  w V -         # q w           ",
"                  e t +         - r 1           ",
"                $ t <         O 3 y $           ",
"                w r +         + 3 r $           ",
"                ; + X         O # O o           ",
"                X O o         X O O O X         "
};
