/* XPM */
static char *f35dee8d7875427088d99026c9b623fdCUPyNX0mkSdMN2BM[] = {
/* columns rows colors chars-per-pixel */
"22 34 235 2 ",
"   c None",
".  c #070606",
"X  c #080706",
"o  c #080707",
"O  c #090707",
"+  c #080807",
"@  c #0A0908",
"#  c #0A0909",
"$  c #0B0909",
"%  c #0B0A09",
"&  c #0B0A0A",
"*  c #0E0B09",
"=  c #0C0A0A",
"-  c #0D0B0B",
";  c #0E0C0C",
":  c #100A0B",
">  c #100C0B",
",  c #110D0B",
"<  c #170F0A",
"1  c #140F0C",
"2  c #140F0E",
"3  c #1B0F0C",
"4  c #14100E",
"5  c #1C120C",
"6  c #1E130C",
"7  c #0F0F19",
"8  c #0E1019",
"9  c #0E111F",
"0  c #151012",
"q  c #111017",
"w  c #161114",
"e  c #1B1110",
"r  c #1B1013",
"t  c #191313",
"y  c #1C1011",
"u  c #1E1010",
"i  c #1D1113",
"p  c #191411",
"a  c #1B1411",
"s  c #1E1511",
"d  c #1B1415",
"f  c #1A1417",
"g  c #1C1614",
"h  c #1E1714",
"j  c #1E1815",
"k  c #11121F",
"l  c #11131F",
"z  c #1F171A",
"x  c #1F191E",
"c  c #200F0D",
"v  c #20100F",
"b  c #21150E",
"n  c #25170F",
"m  c #26170F",
"M  c #28110E",
"N  c #201111",
"B  c #201112",
"V  c #201312",
"C  c #271311",
"Z  c #261312",
"A  c #221711",
"S  c #201713",
"D  c #251512",
"F  c #271713",
"G  c #221317",
"H  c #211615",
"J  c #211617",
"K  c #271617",
"L  c #2C1310",
"P  c #2C1413",
"I  c #2E1412",
"U  c #211813",
"Y  c #231813",
"T  c #241811",
"R  c #211814",
"E  c #221A16",
"W  c #241915",
"Q  c #261814",
"!  c #291910",
"~  c #2C1B11",
"^  c #2C1B12",
"/  c #2C1C13",
"(  c #2F1D12",
")  c #281D16",
"_  c #2B1E17",
"`  c #2F1D14",
"'  c #2D1E15",
"]  c #2F1E14",
"[  c #2D1D16",
"{  c #2E1F16",
"}  c #28171A",
"|  c #241818",
" . c #241D18",
".. c #261D19",
"X. c #271F1B",
"o. c #231B1F",
"O. c #25181E",
"+. c #291A18",
"@. c #2D1A18",
"#. c #2E1A19",
"$. c #291E18",
"%. c #2E1A1D",
"&. c #2F1C1C",
"*. c #311613",
"=. c #331613",
"-. c #351613",
";. c #301E13",
":. c #301F15",
">. c #381814",
",. c #3D1915",
"<. c #301819",
"1. c #321C1A",
"2. c #301E1B",
"3. c #321E1A",
"4. c #371F1A",
"5. c #361E1E",
"6. c #3B1B18",
"7. c #391D19",
"8. c #3C1C1A",
"9. c #2B201B",
"0. c #2E221B",
"q. c #332015",
"w. c #312016",
"e. c #332117",
"r. c #342116",
"t. c #362116",
"y. c #312119",
"u. c #30221B",
"i. c #32231B",
"p. c #362318",
"a. c #362319",
"s. c #36211F",
"d. c #382219",
"f. c #38201B",
"g. c #38251A",
"h. c #3A261B",
"j. c #3D2618",
"k. c #3D2619",
"l. c #3E271A",
"z. c #3A211C",
"x. c #38201E",
"c. c #3F291E",
"v. c #111421",
"b. c #191723",
"n. c #181821",
"m. c #1C1923",
"M. c #1A1C2F",
"N. c #1D212D",
"B. c #22212C",
"V. c #22232D",
"C. c #392120",
"Z. c #392121",
"A. c #3B2221",
"S. c #392628",
"D. c #2B2C3F",
"F. c #411B16",
"G. c #431C17",
"H. c #401D1A",
"J. c #421E1B",
"K. c #471D18",
"L. c #481F1B",
"P. c #47201E",
"I. c #4D211D",
"U. c #4E221E",
"Y. c #40281B",
"T. c #41291B",
"R. c #43291A",
"E. c #42291B",
"W. c #462A1B",
"Q. c #462B1B",
"!. c #41291C",
"~. c #50211C",
"^. c #51211C",
"/. c #51211D",
"(. c #56231D",
"). c #54231F",
"_. c #56231E",
"`. c #58231E",
"'. c #5A241F",
"]. c #402420",
"[. c #452521",
"{. c #452725",
"}. c #452C22",
"|. c #492823",
" X c #4D2822",
".X c #492E27",
"XX c #522320",
"oX c #582520",
"OX c #5C2520",
"+X c #562F28",
"@X c #562F29",
"#X c #592B2E",
"$X c #49392F",
"%X c #59302A",
"&X c #5F342C",
"*X c #4F3B36",
"=X c #523A30",
"-X c #622721",
";X c #632822",
":X c #642822",
">X c #603930",
",X c #663934",
"<X c #55473A",
"1X c #5C493F",
"2X c #64422E",
"3X c #614031",
"4X c #714934",
"5X c #7B443D",
"6X c #774B38",
"7X c #444157",
"8X c #45425A",
"9X c #7E514A",
"0X c #785B49",
"qX c #776650",
"wX c #841F2B",
"eX c #83453B",
"rX c #824E3F",
"tX c #81543F",
"yX c #874B42",
"uX c #8A564E",
"iX c #915D44",
"pX c #905E44",
"aX c #A64040",
"sX c #A84646",
"dX c #9F634B",
"fX c #B56F55",
"gX c #B17153",
"hX c #B27453",
"jX c #A98B71",
"kX c #CF8969",
"lX c #D08460",
"zX c #C18C74",
"xX c #E7926C",
"cX c #EE996C",
"vX c #FCA470",
/* pixels */
"                                            ",
"                                            ",
"                                            ",
"                    #.A.z.                  ",
"                  B A.A.{.f.                ",
"                # 2 e }.4Xc..               ",
"                + s 3XhXtX2X                ",
"                  [ gXvXcX6X                ",
"                  D iXxXlX>X                ",
"                4.=X0XyX1.                  ",
"            =.7.@X<XuXwX5.D                 ",
"          >.J.].%XqXzXsX1X X                ",
"        -.'.I.1.@X$XjXaX|.[.c               ",
"      =.).).v z.&XK *X#XB #.:               ",
"      /.8.B q o.S.x O.G J &.i               ",
"    I OXI.i M.D.7X8XB.8 k b.m.k 9 9 N.B.    ",
"      I L.P.s.iXkX9X0 n.| 5XrX              ",
"          C 1.dXfX.Xw v.+.eX,X              ",
"          J.%.<.i z f 7 } C                 ",
"        L oXXX6.g f e e }                   ",
"        ,.-X`.W y.[ g J f.!                 ",
"        K.:X/.W Y.Y.S $.Y.r.                ",
"        G.;X/.U Y.W.e.R 0.l.5               ",
"          /.).3 [ Y.l.U  .g.^               ",
"            F.M   e.W.( j y.r.              ",
"                  [ Y.( -  .g.m             ",
"                b l.)     R !.^             ",
"                m Y.p   4  .a.              ",
"                ;.a.2   p 9.T               ",
"                [ e.    p y.5               ",
"              O > <     ) r.                ",
"              O - .   O S :.                ",
"                - #   # ; >                 ",
"                O     O # # O               "
};
